{"title":"HUMANS VERSUS ZOMBIES (2011) DVDRip [MKV AC3][RoB]PR3DATOR RG","uid":7140775,"size":875862148,"categoryP":"video","categoryS":"movies","magnet":"?xt=urn:btih:3e8230897942e2ca4e816f613e273c563e1ac566&amp;dn=HUMANS+VERSUS+ZOMBIES+%282011%29+DVDRip+%5BMKV+AC3%5D%5BRoB%5DPR3DATOR+RG&amp;tr=udp%3A%2F%2Ftracker.openbittorrent.com%3A80&amp;tr=udp%3A%2F%2Fopen.demonii.com%3A1337&amp;tr=udp%3A%2F%2Ftracker.coppersurfer.tk%3A6969&amp;tr=udp%3A%2F%2Fexodus.desync.com%3A6969","seeders":0,"leechers":1,"uploader":"BLOVES","files":5,"time":1332995032,"description":" &lt;a href=&quot;http://img12.imageshack.us/img12/3333/mv5bmty2mtm0oti5mf5bml5.jpg&quot; rel=&quot;nofollow&quot; target=&quot;_NEW&quot;&gt;http://img12.imageshack.us/img12/3333/mv5bmty2mtm0oti5mf5bml5.jpg&lt;/a&gt;\nComplete name : HUMANS VERSUS ZOMBIES (2011) DVDRip [MKV AC3][RoB]PR3DATOR RG\nFormat : Matroska\nFormat version : Version 2\nFile size : 823 MiB\nDuration : 1h 28mn\nOverall bit rate : 1 294 Kbps\nWriting application : Lavf51.12.1\nWriting library : Lavf51.12.1\n\nVideo\nID : 1\nFormat : AVC\nFormat/Info : Advanced Video Codec\nFormat profile : &lt;a class=&quot;__cf_email__&quot; href=&quot;/cdn-cgi/l/email-protection&quot; data-cfemail=&quot;aeeccfddcbc2c7c0cbeee29c809f&quot;&gt;[email&amp;#160;protected]&lt;/a&gt;&lt;script cf-hash='f9e31' type=&quot;text/javascript&quot;&gt;\n/* &lt;![CDATA[ */!function(){try{var t=&quot;currentScript&quot;in document?document.currentScript:function(){for(var t=document.getElementsByTagName(&quot;script&quot;),e=t.length;e--;)if(t[e].getAttribute(&quot;cf-hash&quot;))return t[e]}();if(t&amp;&amp;t.previousSibling){var e,r,n,i,c=t.previousSibling,a=c.getAttribute(&quot;data-cfemail&quot;);if(a){for(e=&quot;&quot;,r=parseInt(a.substr(0,2),16),n=2;a.length-n;n+=2)i=parseInt(a.substr(n,2),16)^r,e+=String.fromCharCode(i);e=document.createTextNode(e),c.parentNode.replaceChild(e,c)}}}catch(u){}}();/* ]]&gt; */&lt;/script&gt;\nFormat settings, CABAC : No\nFormat settings, ReFrames : 5 frames\nFormat settings, GOP : M=1, N=12\nCodec ID : V_MPEG4/ISO/AVC\nDuration : 1h 28mn\nBit rate : 1 077 Kbps\nWidth : 624 pixels\nHeight : 256 pixels\nDisplay aspect ratio : 2.40:1\nFrame rate mode : Variable\nFrame rate : 25.000 fps\nColor space : YUV\nChroma subsampling : 4:2:0\nBit depth : 8 bits\nScan type : Progressive\nBits/(Pixel*Frame) : 0.270\nStream size : 684 MiB (83%)\nLanguage : English\n\nAudio\nID : 2\nFormat : AC-3\nFormat/Info : Audio Coding 3\nMode extension : CM (complete main)\nCodec ID : A_AC3\nDuration : 1h 28mn\nBit rate mode : Constant\nBit rate : 192 Kbps\nChannel(s) : 2 channels\nChannel positions : Front: L R\nSampling rate : 44.1 KHz\nBit depth : 16 bits\nCompression mode : Lossy\nStream size : 122 MiB (15%)\nLanguage : English","torrent":{"xt":"urn:btih:3e8230897942e2ca4e816f613e273c563e1ac566","amp;dn":"HUMANS+VERSUS+ZOMBIES+%282011%29+DVDRip+%5BMKV+AC3%5D%5BRoB%5DPR3DATOR+RG","amp;tr":["udp%3A%2F%2Ftracker.openbittorrent.com%3A80","udp%3A%2F%2Fopen.demonii.com%3A1337","udp%3A%2F%2Ftracker.coppersurfer.tk%3A6969","udp%3A%2F%2Fexodus.desync.com%3A6969"],"infoHash":"3e8230897942e2ca4e816f613e273c563e1ac566","infoHashBuffer":{"type":"Buffer","data":[62,130,48,137,121,66,226,202,78,129,111,97,62,39,60,86,62,26,197,102]},"announce":[],"urlList":[]}}